# xmcd CD database file
#
# Track frame offsets:
#	182
#	15530
#	32872
#	52452
#	77945
#	93852
#	108767
#	127725
#	146212
#	174970
#	199000
#	219957
#	239352
#	257027
#
# Disc length: 3694 seconds
#
# Revision: 0
# Processed by: cddbd v1.5PL3 Copyright (c) Steve Scherf et al.
# Submitted via: CDex 1.50beta10
#
DISCID=bc0e6c0e
DTITLE=Billy Flynn And Friends - Blues Today
DYEAR=1993
DGENRE=Blues
TTITLE0=Roadhouse
TTITLE1=Nothin' But Trouble
TTITLE2=Blues Today
TTITLE3=Conjitos Place (For Libbi)
TTITLE4=Can't Say Something Good 'Bout Me
TTITLE5=River Walk
TTITLE6=Though Times Again
TTITLE7=$200 Dresses
TTITLE8=The Blue Side
TTITLE9=Hookin' Part 2
TTITLE10=Trying So Hard
TTITLE11=The Huckle Buck
TTITLE12=Midnight Soul
TTITLE13=Heads Up
EXTD=YEAR: 1993
EXTT0=
EXTT1=
EXTT2=
EXTT3=
EXTT4=
EXTT5=
EXTT6=
EXTT7=
EXTT8=
EXTT9=
EXTT10=
EXTT11=
EXTT12=
EXTT13=
PLAYORDER=
